PathFileType	4	(X/Y/Z)	./resultDataOpenSim/trcMotMarkerGrf/sub10/qtm-13-02.trc
DataRate	CameraRate	NumFrames	NumMarkers	Units	OrigDataRate	OrigDataStartFrame	OrigNumFrames
250.000000	250.000000	9	24	m	250.000000	176	468
Frame#	Time	L.Toe.Tip			R.Toe.Tip			L.Ankle.Lat			R.Ankle.Lat			L.Ankle.Med			R.Ankle.Med			L.Heel			R.Heel			L.Knee.Lat			R.Knee.Lat			L.Knee.Med			R.Knee.Med			L.Thigh.Upper			R.Thigh.Upper			L.ASIS			R.ASIS			V.Sacral			L.Acromium			R.Acromium			C7			L.Elbow			R.Elbow			L.Wrist.Lat			R.Wrist.Lat
		X1	Y1	Z1	X2	Y2	Z2	X3	Y3	Z3	X4	Y4	Z4	X5	Y5	Z5	X6	Y6	Z6	X7	Y7	Z7	X8	Y8	Z8	X9	Y9	Z9	X10	Y10	Z10	X11	Y11	Z11	X12	Y12	Z12	X13	Y13	Z13	X14	Y14	Z14	X15	Y15	Z15	X16	Y16	Z16	X17	Y17	Z17	X18	Y18	Z18	X19	Y19	Z19	X20	Y20	Z20	X21	Y21	Z21	X22	Y22	Z22	X23	Y23	Z23	X24	Y24	Z24

176	0.7	-0.01276219	-0.0039166837	-0.099678022	-0.71775545	0.037666573	-0.010703623	-0.14369639	0.015233636	-0.14136137	-0.78453338	0.16669728	0.021261875	-0.14595923	0.037898724	-0.05757765	-0.72714804	0.15592135	-0.043355954	-0.21020602	-0.018562908	-0.1082204	-0.81225502	0.18572661	-0.041310027	-0.17639805	0.39473325	-0.1759486	-0.48909589	0.42253425	0.088915944	-0.17717255	0.37845927	-0.054865694	-0.43024756	0.39524039	-0.020162305	-0.24421792	0.78002257	-0.23875563	-0.3940547	0.81663966	0.11958738	-0.21199822	0.89129435	-0.15584244	-0.28445506	0.90119895	0.074394706	-0.44307532	0.91391389	-0.10238943	-0.31337803	1.3707952	-0.22811483	-0.35114993	1.3718928	0.087841003	-0.41228768	1.3890659	-0.083600171	-0.49277923	1.0894277	-0.27658149	-0.38130906	1.0270096	0.20744707	-0.48177123	0.85192885	-0.32503778	-0.13720753	0.96240733	0.22308456
177	0.704	-0.010945133	-0.0049910756	-0.099305504	-0.7144674	0.039176863	-0.0096979014	-0.14236647	0.014860647	-0.14079949	-0.77628006	0.17124636	0.02426486	-0.1453109	0.037270093	-0.057160432	-0.71933051	0.15908539	-0.040683496	-0.20938243	-0.018038511	-0.10759231	-0.80380154	0.19224372	-0.037235997	-0.17146066	0.39498381	-0.17594877	-0.47725931	0.4211314	0.091713983	-0.17320269	0.37812336	-0.054710657	-0.4168274	0.39182915	-0.016796502	-0.23650127	0.77909332	-0.23949753	-0.38539444	0.81575909	0.119878	-0.20557857	0.89029911	-0.15583353	-0.27595595	0.90076903	0.073196336	-0.43691532	0.91445765	-0.1018098	-0.30651606	1.3702395	-0.22911297	-0.34540771	1.3716322	0.08686124	-0.40565421	1.3880261	-0.084972962	-0.48464476	1.0881777	-0.27679236	-0.37802149	1.0267654	0.2060683	-0.47261997	0.85094517	-0.32639206	-0.13403562	0.96148238	0.22369038
178	0.708	-0.01032511	-0.005658846	-0.098927626	-0.71043049	0.041597046	-0.0084355042	-0.14207921	0.014715636	-0.14052091	-0.76759721	0.17599449	0.027317215	-0.14551956	0.037065746	-0.057029578	-0.71136772	0.16277498	-0.038268335	-0.20919864	-0.017855543	-0.10736463	-0.79553856	0.19879314	-0.032685873	-0.16566099	0.396064	-0.17585732	-0.46522292	0.41951406	0.094533063	-0.16851844	0.37864261	-0.054370564	-0.40306753	0.3882411	-0.013570492	-0.22896	0.7785791	-0.24033248	-0.37677778	0.81477148	0.12022326	-0.1995822	0.88918185	-0.15600063	-0.26773551	0.90020922	0.07199409	-0.43013718	0.91506401	-0.10120595	-0.29959348	1.3696518	-0.23011701	-0.3395825	1.371354	0.085985489	-0.39896129	1.386994	-0.086391594	-0.47634655	1.086838	-0.27714081	-0.37466121	1.0265174	0.20471449	-0.46324596	0.84990551	-0.32791755	-0.13088143	0.96048271	0.22436252
179	0.712	-0.010403088	-0.0060618408	-0.0987546	-0.70566042	0.044729758	-0.0068910904	-0.14246958	0.014874208	-0.14048595	-0.75842958	0.18088839	0.030326121	-0.14612449	0.037309619	-0.057161333	-0.70313818	0.16692439	-0.036012105	-0.20943183	-0.017788632	-0.10750482	-0.78685269	0.20534295	-0.028286315	-0.15912119	0.3976398	-0.17569883	-0.45295682	0.41774316	0.097396414	-0.16315141	0.37983532	-0.053960877	-0.38900129	0.3845786	-0.010515475	-0.22178365	0.77858962	-0.24115626	-0.36807735	0.81366529	0.12054947	-0.19389717	0.88797837	-0.15627728	-0.25977188	0.89955139	0.070777821	-0.42221917	0.91567804	-0.10064925	-0.29259337	1.369052	-0.23111196	-0.33370666	1.3710623	0.085202471	-0.39222904	1.3860238	-0.087811983	-0.46799354	1.0854399	-0.27758525	-0.37121474	1.026278	0.20338563	-0.45362319	0.84883599	-0.32967275	-0.12775064	0.95940215	0.22508907
180	0.716	-0.010528985	-0.0063341478	-0.098842868	-0.70016561	0.048300736	-0.005027499	-0.14294228	0.015322461	-0.14058866	-0.74880332	0.18586812	0.033225455	-0.1466078	0.037909088	-0.057473395	-0.69463127	0.17147872	-0.033836494	-0.20973808	-0.017632513	-0.10766197	-0.7773875	0.21185187	-0.024450973	-0.15208923	0.39932524	-0.17552101	-0.44047124	0.41593505	0.10031121	-0.15727971	0.3814425	-0.053628219	-0.37470046	0.38097301	-0.0076881147	-0.21515033	0.77909887	-0.24191115	-0.35927378	0.8124355	0.12084626	-0.1883544	0.88675167	-0.15653813	-0.25197163	0.89882857	0.069519669	-0.41327723	0.91610484	-0.1002789	-0.28550135	1.3684509	-0.23207185	-0.32779392	1.3707556	0.084503914	-0.38550194	1.3851858	-0.089156867	-0.45964858	1.0840218	-0.27809594	-0.36769457	1.0260635	0.20210667	-0.44373498	0.84777361	-0.33168754	-0.12463784	0.95823141	0.22585668
181	0.72	-0.010317351	-0.0065552196	-0.099099965	-0.69390086	0.052141087	-0.002750724	-0.14305022	0.015920341	-0.1407058	-0.7387773	0.19094632	0.036003709	-0.14667898	0.03868826	-0.057839418	-0.68583326	0.17635493	-0.031715372	-0.20986708	-0.017309497	-0.10757416	-0.76727926	0.21825083	-0.021205782	-0.14480915	0.40084648	-0.17537736	-0.42779314	0.41418841	0.10322984	-0.15113849	0.38323473	-0.053483994	-0.36024327	0.37762784	-0.0051619294	-0.20914026	0.7799506	-0.24261343	-0.35049112	0.81109774	0.12118761	-0.18285911	0.88556756	-0.15672848	-0.2442673	0.8980681	0.068215063	-0.40423529	0.91611186	-0.10014903	-0.27832281	1.3678626	-0.23297817	-0.32179042	1.3704469	0.083894759	-0.37878803	1.3845548	-0.090406895	-0.45127284	1.0826022	-0.27870491	-0.36410943	1.0258991	0.20090686	-0.43366567	0.84672943	-0.3338444	-0.12153376	0.95696421	0.22665433
182	0.724	-0.0097711226	-0.0067618317	-0.099410005	-0.68675134	0.056244784	6.7995927e-05	-0.14269603	0.016457601	-0.14077497	-0.72832316	0.19622014	0.038705096	-0.14635781	0.039455007	-0.05814324	-0.6766175	0.18139069	-0.029637447	-0.20973051	-0.016860615	-0.10721464	-0.75687813	0.22447714	-0.018391239	-0.13745243	0.40209083	-0.17530184	-0.41486891	0.41249424	0.10606071	-0.14485823	0.38504441	-0.053553507	-0.34568296	0.37481165	-0.0030032499	-0.20368705	0.78093271	-0.24333718	-0.34181557	0.80968894	0.12160886	-0.1773902	0.88448939	-0.15687127	-0.23666577	0.89729885	0.066893977	-0.39606234	0.91566918	-0.10011178	-0.27107803	1.367311	-0.23382426	-0.31562434	1.3701698	0.083377284	-0.37203843	1.3841843	-0.091630436	-0.44281357	1.0811848	-0.27945032	-0.36044116	1.0258158	0.19979418	-0.42359792	0.84567949	-0.33588891	-0.11843177	0.95560334	0.22748033
183	0.728	-0.0091097524	-0.0069818829	-0.099689432	-0.67862318	0.060674099	0.0035244818	-0.14206917	0.016789742	-0.14083236	-0.71734663	0.20177009	0.041390336	-0.14580285	0.040088719	-0.058350412	-0.66688724	0.18643021	-0.027590143	-0.20937118	-0.016364822	-0.10666305	-0.74641346	0.23049747	-0.015837023	-0.13012627	0.40305003	-0.17531105	-0.40155837	0.41076977	0.10872149	-0.13841263	0.38675163	-0.053793889	-0.33107639	0.37275534	-0.0012357534	-0.19863212	0.78186486	-0.24415397	-0.33319226	0.80825186	0.12204631	-0.17193624	0.88356516	-0.15700128	-0.22926496	0.89655468	0.065615788	-0.38908314	0.9150056	-0.0999728	-0.26378683	1.3668188	-0.23460679	-0.30927173	1.3699525	0.082933139	-0.36517162	1.384085	-0.092899523	-0.43425894	1.0797735	-0.28035322	-0.35663154	1.0258463	0.19873678	-0.41363034	0.84460503	-0.33765074	-0.11532544	0.95416335	0.2283436
184	0.732	-0.0085231305	-0.0072144568	-0.09989338	-0.66953156	0.06544003	0.0076397473	-0.14142127	0.016918029	-0.14094997	-0.70584101	0.20754767	0.044082035	-0.14515793	0.040573244	-0.058512623	-0.65670689	0.19140608	-0.025572237	-0.20891047	-0.015873441	-0.10607281	-0.73583165	0.23627742	-0.01342297	-0.12290203	0.40374899	-0.17540941	-0.38777073	0.40899515	0.11117352	-0.13173297	0.38827215	-0.054161371	-0.31651529	0.37153526	0.00016999642	-0.19384319	0.78263765	-0.24505254	-0.32455344	0.80682801	0.12242001	-0.16647976	0.88280467	-0.15714981	-0.22221049	0.89586587	0.064447933	-0.38310772	0.91440062	-0.099656872	-0.25646692	1.3663939	-0.23532256	-0.30274168	1.3697952	0.082530868	-0.35810447	1.3842285	-0.09417571	-0.42562466	1.0783773	-0.28142038	-0.35260972	1.0260174	0.19767208	-0.40366285	0.84352189	-0.33918775	-0.11221468	0.95266586	0.22925706
